<svg xmlns="http://www.w3.org/2000/svg" height="1024" version="1.1" width="1536"><rect id="backgroundrect" width="100%" height="100%" x="0" y="0" fill="none" stroke="none"/><g class="currentLayer" style=""><title>Layer 1</title><path d="M102.4 0h1331.2c61.44 0 102.4 40.96 102.4 102.4s-40.96 102.4-102.4 102.4h-1331.2c-61.44 0-102.4-40.96-102.4-102.4s40.96-102.4 102.4-102.4z m0 409.6h1331.2c61.44 0 102.4 40.96 102.4 102.4s-40.96 102.4-102.4 102.4h-1331.2c-61.44 0-102.4-40.96-102.4-102.4s40.96-102.4 102.4-102.4z m0 409.6h1331.2c61.44 0 102.4 40.96 102.4 102.4s-40.96 102.4-102.4 102.4h-1331.2c-61.44 0-102.4-40.96-102.4-102.4s40.96-102.4 102.4-102.4z" fill="#ffffff" id="svg_1" class="selected" fill-opacity="1"/></g></svg>