<?xml version="1.0" encoding="UTF-8" standalone="no"?>
<!DOCTYPE svg PUBLIC "-//W3C//DTD SVG 1.1//EN" "http://www.w3.org/Graphics/SVG/1.1/DTD/svg11.dtd">
<svg version="1.1" xmlns="http://www.w3.org/2000/svg" xmlns:xlink="http://www.w3.org/1999/xlink" preserveAspectRatio="xMidYMid meet" viewBox="0 0 640 640" width="640" height="640"><defs><path d="M0 0L640 640L0 640L0 0Z" id="ea51iWLcO"></path><path d="M625.7 641.67L612 655.37L-29.59 13.71L-15.88 0L625.7 641.67Z" id="asNqZsB2x"></path><path d="M478.36 756.56L464.65 770.27L-176.94 128.6L-163.23 114.9L478.36 756.56Z" id="e406oFeySq"></path><path d="M209.56 404.7L245.2 440.35L151.02 534.52L115.37 498.87L209.56 404.7Z" id="b16XxrGPTI"></path><path d="M315.27 496.13L350.91 531.77L256.73 625.95L221.09 590.3L315.27 496.13Z" id="k1IwYcPOXA"></path><path d="M110.17 309.39L145.81 345.04L51.63 439.21L15.98 403.56L110.17 309.39Z" id="lrUOvrTlk"></path></defs><g><g><g><use xlink:href="#ea51iWLcO" opacity="1" fill="#000000" fill-opacity="1"></use></g><g><use xlink:href="#asNqZsB2x" opacity="1" fill="#fad201" fill-opacity="1"></use></g><g><use xlink:href="#e406oFeySq" opacity="1" fill="#fcfcfc" fill-opacity="1"></use></g><g><use xlink:href="#b16XxrGPTI" opacity="1" fill="#000000" fill-opacity="1"></use></g><g><use xlink:href="#k1IwYcPOXA" opacity="1" fill="#000000" fill-opacity="1"></use></g><g><use xlink:href="#lrUOvrTlk" opacity="1" fill="#000000" fill-opacity="1"></use></g></g></g></svg>